<svg xmlns="http://www.w3.org/2000/svg" xmlns:xlink="http://www.w3.org/1999/xlink" width="500" zoomAndPan="magnify" viewBox="0 0 375 374.999991" height="500" preserveAspectRatio="xMidYMid meet" version="1.0"><defs><g/></defs><rect x="-37.5" width="450" fill="#ffffff" y="-37.499999" height="449.999989" fill-opacity="1"/><rect x="-37.5" width="450" fill="#ffffff" y="-37.499999" height="449.999989" fill-opacity="1"/><rect x="-37.5" width="450" fill="#d9d9d9" y="-37.499999" height="449.999989" fill-opacity="1"/><g fill="#003c64" fill-opacity="1"><g transform="translate(107.723304, 297.283643)"><g><path d="M 111.738281 -2.195312 C 120.523438 -5.964844 128.058594 -10.984375 134.648438 -17.261719 C 148.773438 -31.074219 155.992188 -47.707031 155.992188 -67.796875 C 155.992188 -87.570312 148.773438 -104.519531 134.335938 -118.328125 C 120.839844 -131.195312 103.890625 -138.414062 83.488281 -139.984375 L 74.074219 -134.335938 L 140.925781 -213.429688 L 26.050781 -213.429688 L 26.050781 -191.460938 L 96.359375 -191.460938 L 31.699219 -116.132812 L 48.335938 -102.636719 C 58.378906 -112.679688 70.304688 -117.699219 84.117188 -117.699219 C 97.925781 -117.699219 109.539062 -112.679688 119.269531 -102.949219 C 129 -93.21875 134.023438 -81.605469 134.023438 -68.109375 C 134.023438 -54.613281 129 -43 118.957031 -33.582031 C 114.5625 -29.191406 109.226562 -25.421875 103.261719 -22.914062 C 96.984375 -20.402344 89.765625 -19.144531 81.292969 -19.144531 C 72.503906 -19.144531 64.027344 -21.972656 55.554688 -27.621094 C 46.765625 -33.269531 40.804688 -41.117188 37.351562 -51.160156 L 16.007812 -43.941406 C 20.714844 -29.816406 29.503906 -18.519531 42.371094 -9.730469 C 48.335938 -5.648438 54.925781 -2.511719 62.144531 -0.3125 C 69.050781 2.195312 76.898438 3.140625 85.6875 3.140625 C 94.472656 3.140625 102.949219 1.570312 111.738281 -2.195312 Z M 111.738281 -2.195312 "/></g></g></g></svg>