<svg xmlns="http://www.w3.org/2000/svg" xmlns:xlink="http://www.w3.org/1999/xlink" width="100" zoomAndPan="magnify" viewBox="0 0 375 187.499995" height="50" preserveAspectRatio="xMidYMid meet" version="1.0"><defs><g/></defs><g fill="#003c64" fill-opacity="1"><g transform="translate(14.215933, 67.513872)"><g><path d="M 12.804688 -4.1875 C 9.878906 -4.1875 7.351562 -5.652344 7.191406 -8.851562 L 1.1875 -8.851562 C 1.226562 -2.292969 6.640625 0.632812 12.566406 0.632812 C 18.0625 0.632812 23.710938 -1.699219 23.710938 -8.023438 C 23.710938 -18.257812 8.179688 -14.820312 8.179688 -19.601562 C 8.179688 -21.617188 10.511719 -22.410156 12.171875 -22.410156 C 15.136719 -22.410156 16.757812 -21.5 17.074219 -18.695312 L 22.804688 -18.695312 C 22.605469 -24.820312 17.625 -27.269531 12.09375 -27.269531 C 7.191406 -27.269531 2.054688 -24.660156 2.054688 -19.128906 C 2.054688 -9.207031 17.585938 -12.566406 17.585938 -7.351562 C 17.585938 -4.941406 14.664062 -4.1875 12.804688 -4.1875 Z M 12.804688 -4.1875 "/></g></g></g><g fill="#003c64" fill-opacity="1"><g transform="translate(48.994352, 67.513872)"><g><path d="M 18.0625 -26.875 L 18.0625 -11.34375 C 18.0625 -7.628906 16.953125 -5.53125 12.882812 -5.53125 C 8.851562 -5.53125 7.707031 -7.628906 7.707031 -11.34375 L 7.707031 -26.875 L 1.777344 -26.875 L 1.777344 -10.472656 C 1.777344 -3.320312 5.886719 0.394531 12.882812 0.394531 C 19.878906 0.394531 23.988281 -3.320312 23.988281 -10.472656 L 23.988281 -26.875 Z M 18.0625 -26.875 "/></g></g></g><g fill="#003c64" fill-opacity="1"><g transform="translate(84.642189, 67.513872)"><g><path d="M 15.335938 -7.863281 C 15.335938 -6.085938 13.832031 -4.625 12.054688 -4.625 L 8.300781 -4.625 L 8.300781 -11.105469 L 12.054688 -11.105469 C 13.832031 -11.105469 15.335938 -9.605469 15.335938 -7.863281 Z M 13.476562 -19.089844 C 13.476562 -17.390625 12.054688 -15.964844 10.355469 -15.964844 L 8.300781 -15.964844 L 8.300781 -22.210938 L 10.355469 -22.210938 C 12.054688 -22.210938 13.476562 -20.828125 13.476562 -19.089844 Z M 21.382812 -7.707031 C 21.382812 -11.34375 18.929688 -13.753906 15.925781 -14.464844 C 17.941406 -15.375 19.128906 -17.429688 19.128906 -20.15625 C 19.128906 -23.832031 16.203125 -26.875 11.621094 -26.875 L 2.371094 -26.875 L 2.371094 0 L 13.238281 0 C 18.378906 0 21.382812 -3.082031 21.382812 -7.707031 Z M 21.382812 -7.707031 "/></g></g></g><g fill="#003c64" fill-opacity="1"><g transform="translate(116.298557, 67.513872)"><g><path d="M 13.792969 -21.5 L 21.460938 -21.5 L 21.460938 -26.875 L 0.199219 -26.875 L 0.199219 -21.5 L 7.863281 -21.5 L 7.863281 0 L 13.792969 0 Z M 13.792969 -21.5 "/></g></g></g><g fill="#003c64" fill-opacity="1"><g transform="translate(147.836376, 67.513872)"><g><path d="M 2.371094 0 L 17.941406 0 L 17.941406 -5.375 L 8.300781 -5.375 L 8.300781 -26.875 L 2.371094 -26.875 Z M 2.371094 0 "/></g></g></g><g fill="#003c64" fill-opacity="1"><g transform="translate(177.042556, 67.513872)"><g><path d="M 17.941406 -5.375 L 8.300781 -5.375 L 8.300781 -10.789062 L 17.546875 -10.789062 L 17.546875 -16.164062 L 8.300781 -16.164062 L 8.300781 -21.5 L 17.941406 -21.5 L 17.941406 -26.875 L 2.371094 -26.875 L 2.371094 0 L 17.941406 0 Z M 17.941406 -5.375 "/></g></g></g><g fill="#0ac5a8" fill-opacity="1"><g transform="translate(13.737726, 147.290699)"><g><path d="M 71.636719 7.945312 L 101.28125 -62.414062 L 90.21875 -62.414062 L 71.492188 -14.328125 L 51.351562 -65.679688 L 31.207031 -14.328125 L 12.484375 -62.414062 L 1.417969 -62.414062 L 31.347656 7.945312 L 51.351562 -42.414062 Z M 71.636719 7.945312 "/></g></g></g><g fill="#0ac5a8" fill-opacity="1"><g transform="translate(123.530528, 147.290699)"><g><path d="M 71.636719 -32.625 C 71.636719 -41.136719 68.230469 -48.515625 61.707031 -54.898438 C 55.324219 -60.996094 47.664062 -64.117188 39.007812 -64.117188 C 29.929688 -64.117188 22.269531 -60.855469 15.886719 -54.472656 C 9.503906 -48.089844 6.382812 -40.429688 6.382812 -31.492188 C 6.382812 -22.414062 9.503906 -14.753906 15.886719 -8.511719 C 18.867188 -5.53125 22.269531 -3.261719 26.242188 -1.558594 C 30.214844 0.140625 34.894531 0.992188 40.429688 0.992188 C 45.960938 0.992188 51.351562 -0.710938 56.742188 -4.113281 C 62.132812 -7.519531 66.101562 -12.339844 68.796875 -18.300781 L 57.449219 -18.300781 C 55.179688 -15.320312 52.484375 -13.050781 49.222656 -11.347656 C 45.960938 -9.644531 42.554688 -8.9375 39.007812 -8.9375 C 33.621094 -8.9375 28.796875 -10.640625 24.539062 -14.183594 C 20.285156 -17.589844 17.589844 -21.988281 16.738281 -27.378906 L 71.636719 -27.378906 Z M 61.136719 -35.890625 L 16.878906 -35.890625 C 17.449219 -38.441406 18.441406 -40.855469 19.859375 -43.125 C 24.398438 -50.5 30.78125 -54.1875 39.007812 -54.1875 C 44.257812 -54.1875 48.9375 -52.484375 53.054688 -49.082031 C 57.308594 -45.535156 59.863281 -41.136719 61.136719 -35.890625 Z M 61.136719 -35.890625 "/></g></g></g><g fill="#0ac5a8" fill-opacity="1"><g transform="translate(207.93204, 147.290699)"><g><path d="M 20.570312 0 L 20.570312 -10.640625 C 20.996094 -9.789062 21.703125 -9.078125 22.269531 -8.511719 C 28.230469 -1.84375 35.464844 1.417969 44.117188 1.417969 C 52.628906 1.417969 59.863281 -1.84375 65.820312 -8.511719 C 71.492188 -14.894531 74.472656 -22.414062 74.472656 -31.207031 C 74.472656 -39.859375 71.492188 -47.378906 65.820312 -53.902344 C 59.863281 -60.429688 52.628906 -63.832031 44.117188 -63.832031 C 35.464844 -63.832031 28.230469 -60.429688 22.269531 -53.902344 C 21.703125 -53.195312 20.996094 -52.484375 20.570312 -51.632812 L 20.570312 -106.390625 L 10.640625 -106.390625 L 10.640625 0 Z M 64.542969 -31.207031 C 64.542969 -25.109375 62.414062 -19.71875 58.160156 -15.320312 C 53.902344 -10.78125 48.65625 -8.511719 42.554688 -8.511719 C 36.3125 -8.511719 31.066406 -10.78125 26.808594 -15.320312 C 22.554688 -19.71875 20.570312 -25.109375 20.570312 -31.207031 C 20.570312 -37.164062 22.554688 -42.554688 26.808594 -47.09375 C 31.066406 -51.632812 36.3125 -53.902344 42.554688 -53.902344 C 48.65625 -53.902344 53.902344 -51.632812 58.160156 -47.09375 C 62.414062 -42.554688 64.542969 -37.164062 64.542969 -31.207031 Z M 64.542969 -31.207031 "/></g></g></g><g fill="#003c64" fill-opacity="1"><g transform="translate(285.820143, 148.246498)"><g><path d="M 55.71875 -1.09375 C 60.101562 -2.972656 63.859375 -5.476562 67.144531 -8.609375 C 74.1875 -15.496094 77.789062 -23.789062 77.789062 -33.808594 C 77.789062 -43.667969 74.1875 -52.121094 66.988281 -59.007812 C 60.257812 -65.425781 51.808594 -69.023438 41.632812 -69.804688 L 36.9375 -66.988281 L 70.277344 -106.429688 L 12.992188 -106.429688 L 12.992188 -95.476562 L 48.050781 -95.476562 L 15.808594 -57.910156 L 24.105469 -51.179688 C 29.113281 -56.191406 35.058594 -58.695312 41.945312 -58.695312 C 48.832031 -58.695312 54.625 -56.191406 59.476562 -51.335938 C 64.328125 -46.484375 66.832031 -40.695312 66.832031 -33.964844 C 66.832031 -27.234375 64.328125 -21.441406 59.320312 -16.746094 C 57.128906 -14.554688 54.46875 -12.679688 51.492188 -11.425781 C 48.363281 -10.171875 44.765625 -9.546875 40.539062 -9.546875 C 36.15625 -9.546875 31.929688 -10.957031 27.703125 -13.773438 C 23.320312 -16.589844 20.347656 -20.503906 18.625 -25.511719 L 7.980469 -21.914062 C 10.332031 -14.867188 14.710938 -9.234375 21.128906 -4.851562 C 24.105469 -2.816406 27.390625 -1.253906 30.992188 -0.15625 C 34.433594 1.09375 38.347656 1.566406 42.730469 1.566406 C 47.113281 1.566406 51.335938 0.78125 55.71875 -1.09375 Z M 55.71875 -1.09375 "/></g></g></g></svg>